<svg width="25" height="26" viewBox="0 0 25 26" fill="none" xmlns="http://www.w3.org/2000/svg">
<mask id="mask0_214_191" style="mask-type:alpha" maskUnits="userSpaceOnUse" x="0" y="0" width="25" height="26">
<rect y="0.5" width="25" height="25" fill="#D9D9D9"/>
</mask>
<g mask="url(#mask0_214_191)">
<path d="M20.4167 22.375L13.8542 15.8125C13.3333 16.2292 12.7344 16.559 12.0573 16.8021C11.3802 17.0451 10.6597 17.1667 9.89583 17.1667C8.00347 17.1667 6.40191 16.5113 5.09115 15.2005C3.78038 13.8898 3.125 12.2882 3.125 10.3958C3.125 8.50347 3.78038 6.90191 5.09115 5.59115C6.40191 4.28038 8.00347 3.625 9.89583 3.625C11.7882 3.625 13.3898 4.28038 14.7005 5.59115C16.0113 6.90191 16.6667 8.50347 16.6667 10.3958C16.6667 11.1597 16.5451 11.8802 16.3021 12.5573C16.059 13.2344 15.7292 13.8333 15.3125 14.3542L21.875 20.9167L20.4167 22.375ZM9.89583 15.0833C11.1979 15.0833 12.3047 14.6276 13.2161 13.7161C14.1276 12.8047 14.5833 11.6979 14.5833 10.3958C14.5833 9.09375 14.1276 7.98698 13.2161 7.07552C12.3047 6.16406 11.1979 5.70833 9.89583 5.70833C8.59375 5.70833 7.48698 6.16406 6.57552 7.07552C5.66406 7.98698 5.20833 9.09375 5.20833 10.3958C5.20833 11.6979 5.66406 12.8047 6.57552 13.7161C7.48698 14.6276 8.59375 15.0833 9.89583 15.0833Z" fill="#F5F5F5"/>
</g>
</svg>
